<svg width="19" height="19" viewBox="0 0 19 19" fill="none" xmlns="http://www.w3.org/2000/svg">
<path d="M15.061 3.16554H3.33909C2.92659 3.16554 2.57711 3.30877 2.29065 3.59523C2.00419 3.88169 1.86096 4.22544 1.86096 4.62648V13.4265C1.86096 13.8275 2.00419 14.1741 2.29065 14.4663C2.57711 14.7585 2.92659 14.9046 3.33909 14.9046H15.061C15.4735 14.9046 15.8229 14.7585 16.1094 14.4663C16.3959 14.1741 16.5391 13.8275 16.5391 13.4265V4.62648C16.5391 4.22544 16.3959 3.88169 16.1094 3.59523C15.8229 3.30877 15.4735 3.16554 15.061 3.16554ZM15.061 4.62648V5.0046L9.20002 9.57648L3.33909 5.0046V4.62648H15.061ZM3.33909 13.4265V6.86085L8.75315 11.0718C8.81044 11.1176 8.87919 11.1549 8.9594 11.1835C9.03961 11.2122 9.11982 11.2265 9.20002 11.2265C9.28023 11.2265 9.36044 11.2122 9.44065 11.1835C9.52086 11.1549 9.58961 11.1176 9.6469 11.0718L15.061 6.86085V13.4265H3.33909Z" fill="#9397AD"/>
</svg>
