<svg width="79" height="79" viewBox="0 0 79 79" fill="none" xmlns="http://www.w3.org/2000/svg">
<g clip-path="url(#clip0_20005129_619)">
<g clip-path="url(#clip1_20005129_619)">
<mask id="mask0_20005129_619" style="mask-type:luminance" maskUnits="userSpaceOnUse" x="0" y="0" width="79" height="79">
<path d="M0.400024 0.44989H78.4V78.4499H0.400024V0.44989Z" fill="white"/>
</mask>
<g mask="url(#mask0_20005129_619)">
<path d="M47.576 65.4499C47.576 72.6299 41.755 78.4499 34.576 78.4499C27.397 78.4499 21.576 72.6299 21.576 65.4499C21.576 58.2699 27.396 52.4499 34.576 52.4499C41.756 52.4499 47.576 58.2709 47.576 65.4499Z" fill="#FFBA08"/>
<path opacity="0.3" d="M47.576 65.4499C47.576 72.6299 41.755 78.4499 34.576 78.4499C27.397 78.4499 21.576 72.6299 21.576 65.4499C21.576 58.2699 27.396 52.4499 34.576 52.4499C41.756 52.4499 47.576 58.2709 47.576 65.4499Z" fill="#EF4444"/>
<path d="M57.3521 39.1939C46.3341 37.6199 37.826 28.1469 37.826 16.6999C37.8259 13.5546 38.4822 10.444 39.7531 7.56689C38.0891 7.17689 36.3601 6.94989 34.576 6.94989C22.031 6.94989 11.826 17.1549 11.826 29.6999V38.7609C11.8274 41.9393 11.1333 45.0794 9.79263 47.9612C8.45194 50.843 6.49705 53.3966 4.06505 55.4429C2.80105 56.5219 2.07605 58.0979 2.07605 59.7619C2.07605 62.8989 4.62705 65.4499 7.76305 65.4499H61.3881C64.5251 65.4499 67.076 62.8989 67.076 59.7619C67.076 58.0979 66.3511 56.5219 65.0541 55.4139C62.6899 53.414 60.7799 50.9326 59.4515 48.1355C58.1231 45.3384 57.408 42.2899 57.3521 39.1939Z" fill="url(#paint0_linear_20005129_619)"/>
<path d="M76.8261 16.6999C76.8261 25.6749 69.55 32.9499 60.576 32.9499C51.602 32.9499 44.326 25.6749 44.326 16.6999C44.326 7.72489 51.601 0.44989 60.576 0.44989C69.5511 0.44989 76.8261 7.72589 76.8261 16.6999Z" fill="url(#paint1_linear_20005129_619)"/>
</g>
</g>
</g>
<defs>
<linearGradient id="paint0_linear_20005129_619" x1="-2.09995" y1="54.4509" x2="59.9" y2="19.4509" gradientUnits="userSpaceOnUse">
<stop stop-color="#FFBA08"/>
<stop offset="1" stop-color="#FFDB7E"/>
</linearGradient>
<linearGradient id="paint1_linear_20005129_619" x1="42.9" y1="37.9499" x2="60.4" y2="-1.05011" gradientUnits="userSpaceOnUse">
<stop stop-color="#7A1CD0"/>
<stop offset="1" stop-color="#6366F1"/>
</linearGradient>
<clipPath id="clip0_20005129_619">
<rect width="78" height="78" fill="white" transform="translate(0.400024 0.44989)"/>
</clipPath>
<clipPath id="clip1_20005129_619">
<rect width="78" height="78" fill="white" transform="translate(0.400024 0.44989)"/>
</clipPath>
</defs>
</svg>
