<svg width="29" height="29" viewBox="0 0 29 29" fill="none" xmlns="http://www.w3.org/2000/svg">
<g clip-path="url(#clip0_20005129_567)">
<path d="M22.0872 19.4225C21.1724 18.5193 20.0304 18.5193 19.1215 19.4225C18.4281 20.11 17.7348 20.7975 17.0531 21.4967C16.8666 21.689 16.7093 21.7298 16.4821 21.6016C16.0334 21.3569 15.5556 21.1588 15.1245 20.8907C13.1143 19.6264 11.4305 18.0008 9.93886 16.1713C9.19889 15.2623 8.5405 14.2893 8.0802 13.1939C7.98698 12.9725 8.00446 12.8268 8.18508 12.6462C8.87844 11.9762 9.55431 11.2886 10.236 10.6011C11.1857 9.64554 11.1857 8.52685 10.2302 7.56547C9.68832 7.01778 9.14645 6.48174 8.60459 5.93404C8.04524 5.3747 7.49172 4.80952 6.92655 4.256C6.01178 3.36454 4.86978 3.36454 3.96084 4.26183C3.26166 4.94936 2.59161 5.65437 1.88077 6.33025C1.22237 6.95369 0.890259 7.71696 0.82034 8.60842C0.709636 10.0592 1.06505 11.4285 1.56614 12.7627C2.59161 15.5245 4.15312 17.9775 6.04674 20.2265C8.60459 23.268 11.6577 25.6743 15.2294 27.4106C16.8375 28.1914 18.5039 28.7915 20.3159 28.8906C21.5628 28.9605 22.6465 28.6459 23.5147 27.6728C24.109 27.0086 24.779 26.4026 25.4083 25.7676C26.3406 24.8237 26.3464 23.6817 25.42 22.7494C24.3129 21.6365 23.2001 20.5295 22.0872 19.4225Z" fill="#6366F1"/>
<path d="M20.9744 14.7787L23.1244 14.4117C22.7865 12.4365 21.8542 10.6477 20.4384 9.22605C18.9409 7.72863 17.0473 6.78473 14.9614 6.49341L14.6584 8.65505C16.2724 8.88229 17.7407 9.6106 18.9002 10.7701C19.9956 11.8655 20.7122 13.2522 20.9744 14.7787Z" fill="#6366F1"/>
<path d="M24.336 5.43294C21.8539 2.95084 18.7134 1.3835 15.2466 0.899902L14.9436 3.06155C17.9384 3.48106 20.6536 4.83864 22.7978 6.97698C24.8312 9.01044 26.1655 11.5799 26.6491 14.4058L28.7991 14.0387C28.2339 10.7642 26.6899 7.79269 24.336 5.43294Z" fill="#6366F1"/>
</g>
<defs>
<clipPath id="clip0_20005129_567">
<rect width="28" height="28" fill="white" transform="translate(0.800049 0.899902)"/>
</clipPath>
</defs>
</svg>
