<svg width="29" height="29" viewBox="0 0 29 29" fill="none" xmlns="http://www.w3.org/2000/svg">
<g clip-path="url(#clip0_20005129_558)">
<path d="M14.8547 1.8999C22.5443 1.8999 28.8 7.4194 28.8 14.2046C28.8 17.0709 27.6657 19.8482 25.6013 22.0496C25.1928 23.7343 25.6887 25.5191 26.9191 26.7496C27.4336 27.2641 27.0698 28.1499 26.3391 28.1499C24.0015 28.1499 21.7481 27.2343 20.0738 25.6193C18.4172 26.2105 16.6644 26.5093 14.8547 26.5093C7.16513 26.5093 0.800049 20.9898 0.800049 14.2046C0.800049 7.4194 7.16513 1.8999 14.8547 1.8999ZM21.3079 16.6655C22.6649 16.6655 23.7688 15.5616 23.7688 14.2046C23.7688 12.8476 22.6649 11.7437 21.3079 11.7437C19.9508 11.7437 18.8469 12.8476 18.8469 14.2046C18.8469 15.5616 19.9508 16.6655 21.3079 16.6655ZM14.7454 16.6655C16.1024 16.6655 17.2063 15.5616 17.2063 14.2046C17.2063 12.8476 16.1024 11.7437 14.7454 11.7437C13.3883 11.7437 12.2844 12.8476 12.2844 14.2046C12.2844 15.5616 13.3883 16.6655 14.7454 16.6655ZM8.18286 16.6655C9.53988 16.6655 10.6438 15.5616 10.6438 14.2046C10.6438 12.8476 9.53988 11.7437 8.18286 11.7437C6.82585 11.7437 5.72192 12.8476 5.72192 14.2046C5.72192 15.5616 6.82585 16.6655 8.18286 16.6655Z" fill="#22C55E"/>
</g>
<defs>
<clipPath id="clip0_20005129_558">
<rect width="28" height="28" fill="white" transform="translate(0.800049 0.899902)"/>
</clipPath>
</defs>
</svg>
